<mxfile host="app.diagrams.net" modified="2024-07-22T10:40:49.200Z" agent="Mozilla/5.0 (Windows NT 10.0; Win64; x64) AppleWebKit/537.36 (KHTML, like Gecko) Chrome/126.0.0.0 Safari/537.36" etag="anCGom-cjJpUefQM9M73" version="24.7.1" type="device" pages="2">
  <diagram name="Page-1" id="cqh8ogKZX8drTCRamgJH">
    <mxGraphModel dx="2137" dy="1166" grid="0" gridSize="10" guides="1" tooltips="1" connect="1" arrows="1" fold="1" page="0" pageScale="1" pageWidth="850" pageHeight="1100" math="0" shadow="0">
      <root>
        <mxCell id="0" />
        <mxCell id="1" parent="0" />
        <mxCell id="w8UWAEbw4s-lLv9PINcf-43" style="edgeStyle=none;curved=1;rounded=0;orthogonalLoop=1;jettySize=auto;html=1;exitX=0.5;exitY=1;exitDx=0;exitDy=0;entryX=1;entryY=0;entryDx=0;entryDy=0;fontSize=12;startSize=8;endSize=8;" edge="1" parent="1" source="w8UWAEbw4s-lLv9PINcf-39" target="zsHyqlOmpJpkOaJFB0gv-27">
          <mxGeometry relative="1" as="geometry" />
        </mxCell>
        <mxCell id="w8UWAEbw4s-lLv9PINcf-39" value="" style="rhombus;whiteSpace=wrap;html=1;" vertex="1" parent="1">
          <mxGeometry x="460" y="730" width="170" height="100" as="geometry" />
        </mxCell>
        <mxCell id="zsHyqlOmpJpkOaJFB0gv-27" value="&lt;b&gt;PRODUCTS&lt;/b&gt;" style="rounded=0;whiteSpace=wrap;html=1;" vertex="1" parent="1">
          <mxGeometry x="-16" y="900" width="156" height="87" as="geometry" />
        </mxCell>
        <mxCell id="w8UWAEbw4s-lLv9PINcf-23" style="edgeStyle=none;curved=1;rounded=0;orthogonalLoop=1;jettySize=auto;html=1;exitX=0.25;exitY=0;exitDx=0;exitDy=0;entryX=0.5;entryY=1;entryDx=0;entryDy=0;fontSize=12;startSize=8;endSize=8;" edge="1" parent="1" source="zsHyqlOmpJpkOaJFB0gv-12" target="w8UWAEbw4s-lLv9PINcf-15">
          <mxGeometry relative="1" as="geometry" />
        </mxCell>
        <mxCell id="w8UWAEbw4s-lLv9PINcf-24" style="edgeStyle=none;curved=1;rounded=0;orthogonalLoop=1;jettySize=auto;html=1;exitX=1;exitY=0;exitDx=0;exitDy=0;fontSize=12;startSize=8;endSize=8;" edge="1" parent="1" source="zsHyqlOmpJpkOaJFB0gv-12" target="w8UWAEbw4s-lLv9PINcf-14">
          <mxGeometry relative="1" as="geometry" />
        </mxCell>
        <mxCell id="w8UWAEbw4s-lLv9PINcf-25" style="edgeStyle=none;curved=1;rounded=0;orthogonalLoop=1;jettySize=auto;html=1;entryX=0;entryY=0.5;entryDx=0;entryDy=0;fontSize=12;startSize=8;endSize=8;" edge="1" parent="1" source="zsHyqlOmpJpkOaJFB0gv-12" target="w8UWAEbw4s-lLv9PINcf-16">
          <mxGeometry relative="1" as="geometry" />
        </mxCell>
        <mxCell id="w8UWAEbw4s-lLv9PINcf-35" style="edgeStyle=none;curved=1;rounded=0;orthogonalLoop=1;jettySize=auto;html=1;exitX=1;exitY=1;exitDx=0;exitDy=0;fontSize=12;startSize=8;endSize=8;entryX=0.5;entryY=0;entryDx=0;entryDy=0;" edge="1" parent="1" source="zsHyqlOmpJpkOaJFB0gv-12" target="w8UWAEbw4s-lLv9PINcf-36">
          <mxGeometry relative="1" as="geometry">
            <mxPoint x="350" y="400" as="targetPoint" />
          </mxGeometry>
        </mxCell>
        <mxCell id="zsHyqlOmpJpkOaJFB0gv-12" value="&lt;b&gt;USER&lt;/b&gt;" style="rounded=0;whiteSpace=wrap;html=1;" vertex="1" parent="1">
          <mxGeometry x="-16" y="161" width="120" height="60" as="geometry" />
        </mxCell>
        <mxCell id="w8UWAEbw4s-lLv9PINcf-5" style="edgeStyle=none;curved=1;rounded=0;orthogonalLoop=1;jettySize=auto;html=1;fontSize=12;startSize=8;endSize=8;entryX=1;entryY=0.5;entryDx=0;entryDy=0;" edge="1" parent="1" source="w8UWAEbw4s-lLv9PINcf-32">
          <mxGeometry relative="1" as="geometry">
            <mxPoint x="-396" y="551" as="targetPoint" />
          </mxGeometry>
        </mxCell>
        <mxCell id="w8UWAEbw4s-lLv9PINcf-26" style="edgeStyle=none;curved=1;rounded=0;orthogonalLoop=1;jettySize=auto;html=1;exitX=1;exitY=0;exitDx=0;exitDy=0;entryX=0;entryY=1;entryDx=0;entryDy=0;fontSize=12;startSize=8;endSize=8;" edge="1" parent="1" source="zsHyqlOmpJpkOaJFB0gv-17" target="w8UWAEbw4s-lLv9PINcf-17">
          <mxGeometry relative="1" as="geometry" />
        </mxCell>
        <mxCell id="zsHyqlOmpJpkOaJFB0gv-17" value="&lt;b&gt;ORDER&lt;/b&gt;" style="rounded=0;whiteSpace=wrap;html=1;" vertex="1" parent="1">
          <mxGeometry x="-40" y="510" width="170" height="90" as="geometry" />
        </mxCell>
        <mxCell id="zsHyqlOmpJpkOaJFB0gv-18" value="&lt;b&gt;ONE TO MANY&lt;/b&gt;" style="rhombus;whiteSpace=wrap;html=1;" vertex="1" parent="1">
          <mxGeometry x="-16" y="340" width="119" height="80" as="geometry" />
        </mxCell>
        <mxCell id="zsHyqlOmpJpkOaJFB0gv-19" value="" style="endArrow=classic;html=1;rounded=0;fontSize=12;startSize=8;endSize=8;curved=1;exitX=0.5;exitY=1;exitDx=0;exitDy=0;entryX=0.5;entryY=0;entryDx=0;entryDy=0;" edge="1" parent="1" source="zsHyqlOmpJpkOaJFB0gv-12" target="zsHyqlOmpJpkOaJFB0gv-18">
          <mxGeometry width="50" height="50" relative="1" as="geometry">
            <mxPoint x="193" y="444" as="sourcePoint" />
            <mxPoint x="178" y="415" as="targetPoint" />
          </mxGeometry>
        </mxCell>
        <mxCell id="zsHyqlOmpJpkOaJFB0gv-20" value="" style="endArrow=classic;html=1;rounded=0;fontSize=12;startSize=8;endSize=8;curved=1;exitX=0.5;exitY=1;exitDx=0;exitDy=0;entryX=0.5;entryY=0;entryDx=0;entryDy=0;" edge="1" parent="1" source="zsHyqlOmpJpkOaJFB0gv-18" target="zsHyqlOmpJpkOaJFB0gv-17">
          <mxGeometry width="50" height="50" relative="1" as="geometry">
            <mxPoint x="135" y="480" as="sourcePoint" />
            <mxPoint x="185" y="430" as="targetPoint" />
          </mxGeometry>
        </mxCell>
        <mxCell id="w8UWAEbw4s-lLv9PINcf-31" style="edgeStyle=none;curved=1;rounded=0;orthogonalLoop=1;jettySize=auto;html=1;exitX=0;exitY=1;exitDx=0;exitDy=0;fontSize=12;startSize=8;endSize=8;" edge="1" parent="1" source="zsHyqlOmpJpkOaJFB0gv-27" target="w8UWAEbw4s-lLv9PINcf-20">
          <mxGeometry relative="1" as="geometry" />
        </mxCell>
        <mxCell id="w8UWAEbw4s-lLv9PINcf-7" style="edgeStyle=none;curved=1;rounded=0;orthogonalLoop=1;jettySize=auto;html=1;exitX=0;exitY=1;exitDx=0;exitDy=0;entryX=0.5;entryY=0;entryDx=0;entryDy=0;fontSize=12;startSize=8;endSize=8;" edge="1" parent="1" source="w8UWAEbw4s-lLv9PINcf-32" target="w8UWAEbw4s-lLv9PINcf-6">
          <mxGeometry relative="1" as="geometry">
            <mxPoint x="-516" y="581" as="sourcePoint" />
            <Array as="points">
              <mxPoint x="-490" y="670" />
            </Array>
          </mxGeometry>
        </mxCell>
        <mxCell id="w8UWAEbw4s-lLv9PINcf-9" style="edgeStyle=none;curved=1;rounded=0;orthogonalLoop=1;jettySize=auto;html=1;exitX=0.958;exitY=0.754;exitDx=0;exitDy=0;entryX=0.5;entryY=0;entryDx=0;entryDy=0;fontSize=12;startSize=8;endSize=8;exitPerimeter=0;" edge="1" parent="1" source="w8UWAEbw4s-lLv9PINcf-32" target="w8UWAEbw4s-lLv9PINcf-8">
          <mxGeometry relative="1" as="geometry">
            <mxPoint x="-396" y="581" as="sourcePoint" />
          </mxGeometry>
        </mxCell>
        <mxCell id="w8UWAEbw4s-lLv9PINcf-6" value="PAYMENT&amp;nbsp;&lt;br&gt;METHOD" style="ellipse;whiteSpace=wrap;html=1;" vertex="1" parent="1">
          <mxGeometry x="-520" y="740" width="120" height="80" as="geometry" />
        </mxCell>
        <mxCell id="w8UWAEbw4s-lLv9PINcf-8" value="INFO" style="ellipse;whiteSpace=wrap;html=1;" vertex="1" parent="1">
          <mxGeometry x="-280" y="732" width="120" height="80" as="geometry" />
        </mxCell>
        <mxCell id="w8UWAEbw4s-lLv9PINcf-14" value="PROFILE" style="ellipse;whiteSpace=wrap;html=1;" vertex="1" parent="1">
          <mxGeometry x="103" y="5" width="120" height="80" as="geometry" />
        </mxCell>
        <mxCell id="w8UWAEbw4s-lLv9PINcf-15" value="ADMIN&amp;nbsp;&lt;br&gt;PRIVILAGE" style="ellipse;whiteSpace=wrap;html=1;" vertex="1" parent="1">
          <mxGeometry x="-46" y="-5" width="120" height="80" as="geometry" />
        </mxCell>
        <mxCell id="w8UWAEbw4s-lLv9PINcf-16" value="DETAILS" style="ellipse;whiteSpace=wrap;html=1;" vertex="1" parent="1">
          <mxGeometry x="154" y="151" width="120" height="80" as="geometry" />
        </mxCell>
        <mxCell id="w8UWAEbw4s-lLv9PINcf-17" value="HISTORY" style="ellipse;whiteSpace=wrap;html=1;" vertex="1" parent="1">
          <mxGeometry x="232" y="413" width="120" height="80" as="geometry" />
        </mxCell>
        <mxCell id="w8UWAEbw4s-lLv9PINcf-19" value="&#xa;&lt;span style=&quot;color: rgb(0, 0, 0); font-family: Helvetica; font-size: 12px; font-style: normal; font-variant-ligatures: normal; font-variant-caps: normal; font-weight: 400; letter-spacing: normal; orphans: 2; text-align: center; text-indent: 0px; text-transform: none; widows: 2; word-spacing: 0px; -webkit-text-stroke-width: 0px; white-space: normal; background-color: rgb(255, 255, 255); text-decoration-thickness: initial; text-decoration-style: initial; text-decoration-color: initial; display: inline !important; float: none;&quot;&gt;DETAILS&lt;/span&gt;&#xa;&#xa;" style="ellipse;whiteSpace=wrap;html=1;" vertex="1" parent="1">
          <mxGeometry x="192" y="650" width="120" height="80" as="geometry" />
        </mxCell>
        <mxCell id="w8UWAEbw4s-lLv9PINcf-20" value="INFO" style="ellipse;whiteSpace=wrap;html=1;" vertex="1" parent="1">
          <mxGeometry x="-117" y="1050" width="120" height="80" as="geometry" />
        </mxCell>
        <mxCell id="w8UWAEbw4s-lLv9PINcf-21" value="AVAILABILITY" style="ellipse;whiteSpace=wrap;html=1;" vertex="1" parent="1">
          <mxGeometry x="177" y="987" width="120" height="80" as="geometry" />
        </mxCell>
        <mxCell id="w8UWAEbw4s-lLv9PINcf-28" style="edgeStyle=none;curved=1;rounded=0;orthogonalLoop=1;jettySize=auto;html=1;exitX=1;exitY=1;exitDx=0;exitDy=0;entryX=0.562;entryY=0.04;entryDx=0;entryDy=0;entryPerimeter=0;fontSize=12;startSize=8;endSize=8;" edge="1" parent="1" source="zsHyqlOmpJpkOaJFB0gv-17" target="w8UWAEbw4s-lLv9PINcf-19">
          <mxGeometry relative="1" as="geometry" />
        </mxCell>
        <mxCell id="w8UWAEbw4s-lLv9PINcf-30" style="edgeStyle=none;curved=1;rounded=0;orthogonalLoop=1;jettySize=auto;html=1;exitX=1;exitY=1;exitDx=0;exitDy=0;entryX=0;entryY=0.5;entryDx=0;entryDy=0;fontSize=12;startSize=8;endSize=8;" edge="1" parent="1" source="zsHyqlOmpJpkOaJFB0gv-27" target="w8UWAEbw4s-lLv9PINcf-21">
          <mxGeometry relative="1" as="geometry" />
        </mxCell>
        <mxCell id="w8UWAEbw4s-lLv9PINcf-49" style="edgeStyle=none;curved=1;rounded=0;orthogonalLoop=1;jettySize=auto;html=1;fontSize=12;startSize=8;endSize=8;" edge="1" parent="1" source="w8UWAEbw4s-lLv9PINcf-50" target="zsHyqlOmpJpkOaJFB0gv-17">
          <mxGeometry relative="1" as="geometry" />
        </mxCell>
        <mxCell id="w8UWAEbw4s-lLv9PINcf-34" value="PRODUCTS" style="rounded=0;whiteSpace=wrap;html=1;" vertex="1" parent="1">
          <mxGeometry x="3" y="914" width="120" height="60" as="geometry" />
        </mxCell>
        <mxCell id="w8UWAEbw4s-lLv9PINcf-41" style="edgeStyle=none;curved=1;rounded=0;orthogonalLoop=1;jettySize=auto;html=1;exitX=0.5;exitY=1;exitDx=0;exitDy=0;entryX=0.5;entryY=0;entryDx=0;entryDy=0;fontSize=12;startSize=8;endSize=8;" edge="1" parent="1" source="w8UWAEbw4s-lLv9PINcf-36" target="w8UWAEbw4s-lLv9PINcf-40">
          <mxGeometry relative="1" as="geometry" />
        </mxCell>
        <mxCell id="w8UWAEbw4s-lLv9PINcf-36" value="ONE TO ONE" style="rhombus;whiteSpace=wrap;html=1;" vertex="1" parent="1">
          <mxGeometry x="460" y="320" width="170" height="100" as="geometry" />
        </mxCell>
        <mxCell id="w8UWAEbw4s-lLv9PINcf-38" value="ONE TO MANY" style="rhombus;whiteSpace=wrap;html=1;" vertex="1" parent="1">
          <mxGeometry x="480" y="740" width="130" height="80" as="geometry" />
        </mxCell>
        <mxCell id="w8UWAEbw4s-lLv9PINcf-42" style="edgeStyle=none;curved=1;rounded=0;orthogonalLoop=1;jettySize=auto;html=1;exitX=0.5;exitY=1;exitDx=0;exitDy=0;entryX=0.5;entryY=0;entryDx=0;entryDy=0;fontSize=12;startSize=8;endSize=8;" edge="1" parent="1" source="w8UWAEbw4s-lLv9PINcf-40" target="w8UWAEbw4s-lLv9PINcf-39">
          <mxGeometry relative="1" as="geometry" />
        </mxCell>
        <mxCell id="w8UWAEbw4s-lLv9PINcf-56" style="edgeStyle=none;curved=1;rounded=0;orthogonalLoop=1;jettySize=auto;html=1;exitX=1;exitY=0;exitDx=0;exitDy=0;fontSize=12;startSize=8;endSize=8;entryX=0;entryY=0.5;entryDx=0;entryDy=0;" edge="1" parent="1" source="w8UWAEbw4s-lLv9PINcf-40" target="w8UWAEbw4s-lLv9PINcf-57">
          <mxGeometry relative="1" as="geometry">
            <mxPoint x="770" y="490" as="targetPoint" />
          </mxGeometry>
        </mxCell>
        <mxCell id="w8UWAEbw4s-lLv9PINcf-58" style="edgeStyle=none;curved=1;rounded=0;orthogonalLoop=1;jettySize=auto;html=1;exitX=1;exitY=1;exitDx=0;exitDy=0;fontSize=12;startSize=8;endSize=8;entryX=0;entryY=0;entryDx=0;entryDy=0;" edge="1" parent="1" source="w8UWAEbw4s-lLv9PINcf-40" target="w8UWAEbw4s-lLv9PINcf-59">
          <mxGeometry relative="1" as="geometry">
            <mxPoint x="760" y="670" as="targetPoint" />
          </mxGeometry>
        </mxCell>
        <mxCell id="w8UWAEbw4s-lLv9PINcf-40" value="&lt;b&gt;CART&lt;/b&gt;" style="rounded=0;whiteSpace=wrap;html=1;" vertex="1" parent="1">
          <mxGeometry x="460" y="530" width="170" height="82" as="geometry" />
        </mxCell>
        <mxCell id="w8UWAEbw4s-lLv9PINcf-47" style="edgeStyle=none;curved=1;rounded=0;orthogonalLoop=1;jettySize=auto;html=1;exitX=0.5;exitY=1;exitDx=0;exitDy=0;fontSize=12;startSize=8;endSize=8;" edge="1" parent="1">
          <mxGeometry relative="1" as="geometry">
            <mxPoint x="-166.99999999999977" y="949" as="sourcePoint" />
            <mxPoint x="-166.99999999999977" y="949" as="targetPoint" />
          </mxGeometry>
        </mxCell>
        <mxCell id="w8UWAEbw4s-lLv9PINcf-51" value="" style="edgeStyle=none;curved=1;rounded=0;orthogonalLoop=1;jettySize=auto;html=1;fontSize=12;startSize=8;endSize=8;" edge="1" parent="1" source="w8UWAEbw4s-lLv9PINcf-34" target="w8UWAEbw4s-lLv9PINcf-50">
          <mxGeometry relative="1" as="geometry">
            <mxPoint x="62" y="914" as="sourcePoint" />
            <mxPoint x="45" y="581" as="targetPoint" />
          </mxGeometry>
        </mxCell>
        <mxCell id="w8UWAEbw4s-lLv9PINcf-50" value="ONE TO MANY" style="rhombus;whiteSpace=wrap;html=1;" vertex="1" parent="1">
          <mxGeometry x="-20" y="720" width="150" height="80" as="geometry" />
        </mxCell>
        <mxCell id="w8UWAEbw4s-lLv9PINcf-52" value="ORDER" style="rounded=0;whiteSpace=wrap;html=1;" vertex="1" parent="1">
          <mxGeometry x="-15" y="525" width="120" height="60" as="geometry" />
        </mxCell>
        <mxCell id="w8UWAEbw4s-lLv9PINcf-55" value="" style="edgeStyle=none;curved=1;rounded=0;orthogonalLoop=1;jettySize=auto;html=1;fontSize=12;startSize=8;endSize=8;entryX=1;entryY=0.5;entryDx=0;entryDy=0;" edge="1" parent="1" source="zsHyqlOmpJpkOaJFB0gv-17" target="w8UWAEbw4s-lLv9PINcf-32">
          <mxGeometry relative="1" as="geometry">
            <mxPoint x="-40" y="554" as="sourcePoint" />
            <mxPoint x="-396" y="551" as="targetPoint" />
          </mxGeometry>
        </mxCell>
        <mxCell id="w8UWAEbw4s-lLv9PINcf-32" value="PAYMENT" style="ellipse;whiteSpace=wrap;html=1;" vertex="1" parent="1">
          <mxGeometry x="-430" y="511" width="135" height="93" as="geometry" />
        </mxCell>
        <mxCell id="w8UWAEbw4s-lLv9PINcf-57" value="TOTAL PRICE" style="ellipse;whiteSpace=wrap;html=1;" vertex="1" parent="1">
          <mxGeometry x="673" y="386" width="120" height="80" as="geometry" />
        </mxCell>
        <mxCell id="w8UWAEbw4s-lLv9PINcf-59" value="TOTAL PRODUCTS" style="ellipse;whiteSpace=wrap;html=1;" vertex="1" parent="1">
          <mxGeometry x="685" y="689" width="120" height="80" as="geometry" />
        </mxCell>
      </root>
    </mxGraphModel>
  </diagram>
  <diagram id="rb4GlPPoZgH2UXBlINZS" name="Page-2">
    <mxGraphModel dx="936" dy="1336" grid="0" gridSize="10" guides="1" tooltips="1" connect="1" arrows="1" fold="1" page="0" pageScale="1" pageWidth="850" pageHeight="1100" math="0" shadow="0">
      <root>
        <mxCell id="0" />
        <mxCell id="1" parent="0" />
        <mxCell id="w6oOF5b4y7kqv_G_6Fdx-1" value="Actor" style="shape=umlActor;verticalLabelPosition=bottom;verticalAlign=top;html=1;outlineConnect=0;" vertex="1" parent="1">
          <mxGeometry x="196" y="-173" width="30" height="60" as="geometry" />
        </mxCell>
        <mxCell id="w6oOF5b4y7kqv_G_6Fdx-2" value="Actor" style="shape=umlActor;verticalLabelPosition=bottom;verticalAlign=top;html=1;outlineConnect=0;" vertex="1" parent="1">
          <mxGeometry x="721" y="-241" width="30" height="60" as="geometry" />
        </mxCell>
        <mxCell id="w6oOF5b4y7kqv_G_6Fdx-3" value="Actor" style="shape=umlActor;verticalLabelPosition=bottom;verticalAlign=top;html=1;outlineConnect=0;" vertex="1" parent="1">
          <mxGeometry x="721" y="-405" width="30" height="60" as="geometry" />
        </mxCell>
        <mxCell id="w6oOF5b4y7kqv_G_6Fdx-4" value="Customer&lt;div&gt;&lt;br&gt;&lt;/div&gt;" style="text;strokeColor=none;fillColor=none;html=1;align=center;verticalAlign=middle;whiteSpace=wrap;rounded=0;fontSize=16;" vertex="1" parent="1">
          <mxGeometry x="181" y="-83" width="60" height="30" as="geometry" />
        </mxCell>
        <mxCell id="w6oOF5b4y7kqv_G_6Fdx-5" value="Admin&lt;div&gt;&lt;br&gt;&lt;/div&gt;" style="text;strokeColor=none;fillColor=none;html=1;align=center;verticalAlign=middle;whiteSpace=wrap;rounded=0;fontSize=16;" vertex="1" parent="1">
          <mxGeometry x="706" y="-158" width="60" height="30" as="geometry" />
        </mxCell>
        <mxCell id="w6oOF5b4y7kqv_G_6Fdx-6" value="Supplier&lt;div&gt;&lt;br&gt;&lt;/div&gt;" style="text;strokeColor=none;fillColor=none;html=1;align=center;verticalAlign=middle;whiteSpace=wrap;rounded=0;fontSize=16;" vertex="1" parent="1">
          <mxGeometry x="710" y="-323" width="60" height="30" as="geometry" />
        </mxCell>
        <mxCell id="w6oOF5b4y7kqv_G_6Fdx-7" value="Browse Products" style="ellipse;whiteSpace=wrap;html=1;" vertex="1" parent="1">
          <mxGeometry x="403" y="-419" width="126" height="63" as="geometry" />
        </mxCell>
        <mxCell id="w6oOF5b4y7kqv_G_6Fdx-8" value="Adding to Cart" style="ellipse;whiteSpace=wrap;html=1;" vertex="1" parent="1">
          <mxGeometry x="407" y="-271" width="126" height="63" as="geometry" />
        </mxCell>
        <mxCell id="w6oOF5b4y7kqv_G_6Fdx-9" value="Login" style="ellipse;whiteSpace=wrap;html=1;" vertex="1" parent="1">
          <mxGeometry x="407" y="-345" width="126" height="63" as="geometry" />
        </mxCell>
        <mxCell id="w6oOF5b4y7kqv_G_6Fdx-10" value="Advertisements" style="ellipse;whiteSpace=wrap;html=1;" vertex="1" parent="1">
          <mxGeometry x="409" y="-181" width="126" height="63" as="geometry" />
        </mxCell>
        <mxCell id="w6oOF5b4y7kqv_G_6Fdx-11" value="Payment" style="ellipse;whiteSpace=wrap;html=1;" vertex="1" parent="1">
          <mxGeometry x="407" y="-96" width="126" height="63" as="geometry" />
        </mxCell>
        <mxCell id="w6oOF5b4y7kqv_G_6Fdx-12" value="Complete Checkout" style="ellipse;whiteSpace=wrap;html=1;" vertex="1" parent="1">
          <mxGeometry x="407" y="16" width="126" height="63" as="geometry" />
        </mxCell>
        <mxCell id="w6oOF5b4y7kqv_G_6Fdx-13" value="Actor" style="shape=umlActor;verticalLabelPosition=bottom;verticalAlign=top;html=1;outlineConnect=0;" vertex="1" parent="1">
          <mxGeometry x="717" y="-94.5" width="30" height="60" as="geometry" />
        </mxCell>
        <mxCell id="w6oOF5b4y7kqv_G_6Fdx-14" value="" style="endArrow=classic;html=1;rounded=0;fontSize=12;startSize=8;endSize=8;curved=1;" edge="1" parent="1">
          <mxGeometry width="50" height="50" relative="1" as="geometry">
            <mxPoint x="216.24" y="-161.14" as="sourcePoint" />
            <mxPoint x="408.99900523435576" y="-372.0025673562144" as="targetPoint" />
          </mxGeometry>
        </mxCell>
        <mxCell id="w6oOF5b4y7kqv_G_6Fdx-15" value="" style="endArrow=classic;html=1;rounded=0;fontSize=12;startSize=8;endSize=8;curved=1;entryX=0.056;entryY=0.709;entryDx=0;entryDy=0;entryPerimeter=0;" edge="1" parent="1" source="w6oOF5b4y7kqv_G_6Fdx-1" target="w6oOF5b4y7kqv_G_6Fdx-9">
          <mxGeometry width="50" height="50" relative="1" as="geometry">
            <mxPoint x="474" y="-117" as="sourcePoint" />
            <mxPoint x="524" y="-167" as="targetPoint" />
          </mxGeometry>
        </mxCell>
        <mxCell id="w6oOF5b4y7kqv_G_6Fdx-16" value="" style="endArrow=classic;html=1;rounded=0;fontSize=12;startSize=8;endSize=8;curved=1;" edge="1" parent="1" source="w6oOF5b4y7kqv_G_6Fdx-1" target="w6oOF5b4y7kqv_G_6Fdx-8">
          <mxGeometry width="50" height="50" relative="1" as="geometry">
            <mxPoint x="474" y="-117" as="sourcePoint" />
            <mxPoint x="524" y="-167" as="targetPoint" />
            <Array as="points" />
          </mxGeometry>
        </mxCell>
        <mxCell id="w6oOF5b4y7kqv_G_6Fdx-17" value="" style="endArrow=classic;html=1;rounded=0;fontSize=12;startSize=8;endSize=8;curved=1;exitX=1;exitY=1;exitDx=0;exitDy=0;exitPerimeter=0;" edge="1" parent="1" source="w6oOF5b4y7kqv_G_6Fdx-1" target="w6oOF5b4y7kqv_G_6Fdx-11">
          <mxGeometry width="50" height="50" relative="1" as="geometry">
            <mxPoint x="474" y="-117" as="sourcePoint" />
            <mxPoint x="524" y="-167" as="targetPoint" />
            <Array as="points">
              <mxPoint x="363" y="-57" />
            </Array>
          </mxGeometry>
        </mxCell>
        <mxCell id="w6oOF5b4y7kqv_G_6Fdx-18" value="" style="endArrow=classic;html=1;rounded=0;fontSize=12;startSize=8;endSize=8;curved=1;" edge="1" parent="1" target="w6oOF5b4y7kqv_G_6Fdx-10">
          <mxGeometry width="50" height="50" relative="1" as="geometry">
            <mxPoint x="709" y="-348" as="sourcePoint" />
            <mxPoint x="585" y="-208" as="targetPoint" />
          </mxGeometry>
        </mxCell>
        <mxCell id="w6oOF5b4y7kqv_G_6Fdx-19" value="" style="endArrow=classic;html=1;rounded=0;fontSize=12;startSize=8;endSize=8;curved=1;exitX=0.061;exitY=0.741;exitDx=0;exitDy=0;exitPerimeter=0;" edge="1" parent="1" source="w6oOF5b4y7kqv_G_6Fdx-10">
          <mxGeometry width="50" height="50" relative="1" as="geometry">
            <mxPoint x="403" y="-132" as="sourcePoint" />
            <mxPoint x="229" y="-140" as="targetPoint" />
          </mxGeometry>
        </mxCell>
        <mxCell id="w6oOF5b4y7kqv_G_6Fdx-20" value="" style="endArrow=none;dashed=1;html=1;rounded=0;fontSize=12;startSize=8;endSize=8;curved=1;" edge="1" parent="1">
          <mxGeometry width="50" height="50" relative="1" as="geometry">
            <mxPoint x="471" y="-38" as="sourcePoint" />
            <mxPoint x="474" y="12" as="targetPoint" />
            <Array as="points">
              <mxPoint x="471" y="44" />
            </Array>
          </mxGeometry>
        </mxCell>
        <mxCell id="w6oOF5b4y7kqv_G_6Fdx-21" value="" style="endArrow=classic;html=1;rounded=0;fontSize=12;startSize=8;endSize=8;curved=1;exitX=1;exitY=0.5;exitDx=0;exitDy=0;" edge="1" parent="1" source="w6oOF5b4y7kqv_G_6Fdx-11">
          <mxGeometry width="50" height="50" relative="1" as="geometry">
            <mxPoint x="474" y="-117" as="sourcePoint" />
            <mxPoint x="711" y="-43" as="targetPoint" />
          </mxGeometry>
        </mxCell>
        <mxCell id="w6oOF5b4y7kqv_G_6Fdx-22" value="" style="endArrow=classic;html=1;rounded=0;fontSize=12;startSize=8;endSize=8;curved=1;exitX=1;exitY=0.5;exitDx=0;exitDy=0;" edge="1" parent="1" source="w6oOF5b4y7kqv_G_6Fdx-9" target="w6oOF5b4y7kqv_G_6Fdx-2">
          <mxGeometry width="50" height="50" relative="1" as="geometry">
            <mxPoint x="474" y="-117" as="sourcePoint" />
            <mxPoint x="524" y="-167" as="targetPoint" />
          </mxGeometry>
        </mxCell>
        <mxCell id="w6oOF5b4y7kqv_G_6Fdx-23" value="" style="endArrow=classic;html=1;rounded=0;fontSize=12;startSize=8;endSize=8;curved=1;exitX=0.96;exitY=0.243;exitDx=0;exitDy=0;exitPerimeter=0;" edge="1" parent="1" source="w6oOF5b4y7kqv_G_6Fdx-8">
          <mxGeometry width="50" height="50" relative="1" as="geometry">
            <mxPoint x="474" y="-117" as="sourcePoint" />
            <mxPoint x="716" y="-340" as="targetPoint" />
          </mxGeometry>
        </mxCell>
        <mxCell id="w6oOF5b4y7kqv_G_6Fdx-24" value="" style="endArrow=classic;html=1;rounded=0;fontSize=12;startSize=8;endSize=8;curved=1;exitX=0.722;exitY=0.118;exitDx=0;exitDy=0;exitPerimeter=0;" edge="1" parent="1" source="w6oOF5b4y7kqv_G_6Fdx-25">
          <mxGeometry width="50" height="50" relative="1" as="geometry">
            <mxPoint x="539" y="-386" as="sourcePoint" />
            <mxPoint x="720" y="-371" as="targetPoint" />
          </mxGeometry>
        </mxCell>
        <mxCell id="w6oOF5b4y7kqv_G_6Fdx-25" value="" style="rounded=0;whiteSpace=wrap;html=1;fillColor=none;" vertex="1" parent="1">
          <mxGeometry x="353" y="-447" width="245" height="550" as="geometry" />
        </mxCell>
        <mxCell id="w6oOF5b4y7kqv_G_6Fdx-26" value="Payment Gateway&lt;div&gt;&lt;br&gt;&lt;/div&gt;" style="text;strokeColor=none;fillColor=none;html=1;align=center;verticalAlign=middle;whiteSpace=wrap;rounded=0;fontSize=16;" vertex="1" parent="1">
          <mxGeometry x="706" y="-1" width="60" height="30" as="geometry" />
        </mxCell>
      </root>
    </mxGraphModel>
  </diagram>
</mxfile>
